<svg xmlns="http://www.w3.org/2000/svg" viewBox="0 0 1280 400" width="1280" height="400" role="img"><title>RAMen: memory at a glance for the Omarchy bar</title><desc>Neon RAMen wordmark beside a neon ramen bowl, a vertical sign reading ラーメン (ramen), and three bar items at 37, 82 and 96 percent.</desc><defs><filter id="b0" filterUnits="userSpaceOnUse" x="-60" y="-60" width="200" height="220" color-interpolation-filters="sRGB"><feGaussianBlur stdDeviation="8.0357"/></filter><filter id="b1" filterUnits="userSpaceOnUse" x="-60" y="-60" width="200" height="220" color-interpolation-filters="sRGB"><feGaussianBlur stdDeviation="2.8571"/></filter><filter id="b2" filterUnits="userSpaceOnUse" x="0" y="0" width="1280" height="640" color-interpolation-filters="sRGB"><feGaussianBlur stdDeviation="3.2"/></filter><filter id="b3" filterUnits="userSpaceOnUse" x="-60" y="-60" width="200" height="220" color-interpolation-filters="sRGB"><feGaussianBlur stdDeviation="15.5172"/></filter><filter id="b4" filterUnits="userSpaceOnUse" x="-60" y="-60" width="200" height="220" color-interpolation-filters="sRGB"><feGaussianBlur stdDeviation="5.5172"/></filter><filter id="b5" filterUnits="userSpaceOnUse" x="0" y="0" width="1280" height="640" color-interpolation-filters="sRGB"><feGaussianBlur stdDeviation="22"/></filter><filter id="b6" filterUnits="userSpaceOnUse" x="0" y="0" width="1280" height="640" color-interpolation-filters="sRGB"><feGaussianBlur stdDeviation="1.2"/></filter><filter id="b7" filterUnits="userSpaceOnUse" x="-6" y="-6" width="30" height="28" color-interpolation-filters="sRGB"><feGaussianBlur stdDeviation="0.7377"/></filter><filter id="b8" filterUnits="userSpaceOnUse" x="-6" y="-6" width="30" height="28" color-interpolation-filters="sRGB"><feGaussianBlur stdDeviation="0.2623"/></filter><filter id="b9" filterUnits="userSpaceOnUse" x="-60" y="-60" width="180" height="180" color-interpolation-filters="sRGB"><feGaussianBlur stdDeviation="2.7826"/></filter></defs><linearGradient id="sky" x1="0" y1="0" x2="0" y2="1"><stop offset="0" stop-color="#07060e"/><stop offset="0.62" stop-color="#18123a"/><stop offset="1" stop-color="#0d0b1c"/></linearGradient><rect width="1280" height="400" fill="url(#sky)"/><ellipse cx="1049.6" cy="304" rx="384" ry="64" fill="#ff3ea5" opacity="0.22" filter="url(#b5)"/><ellipse cx="230.4" cy="304" rx="332.8" ry="48" fill="#2de2e6" opacity="0.14" filter="url(#b5)"/><g stroke-linecap="round"><path d="M557.1 206.3 l11.3 43.6" stroke="#8fa2ff" stroke-opacity="0.085" stroke-width="0.96"/><path d="M735.3 41.3 l7.9 30.4" stroke="#8fa2ff" stroke-opacity="0.099" stroke-width="1.16"/><path d="M84.2 93.5 l4.4 16.9" stroke="#8fa2ff" stroke-opacity="0.114" stroke-width="1.09"/><path d="M15.3 392.2 l11.7 44.9" stroke="#8fa2ff" stroke-opacity="0.101" stroke-width="1.03"/><path d="M167.9 -33.4 l8.0 30.9" stroke="#8fa2ff" stroke-opacity="0.051" stroke-width="0.73"/><path d="M279.4 -26.8 l7.5 28.8" stroke="#8fa2ff" stroke-opacity="0.083" stroke-width="1.19"/><path d="M645.2 241.7 l7.8 30.0" stroke="#8fa2ff" stroke-opacity="0.101" stroke-width="0.92"/><path d="M327.2 399.0 l11.9 45.9" stroke="#8fa2ff" stroke-opacity="0.116" stroke-width="1.10"/><path d="M376.2 61.1 l6.0 23.2" stroke="#8fa2ff" stroke-opacity="0.051" stroke-width="1.14"/><path d="M488.5 332.5 l6.9 26.4" stroke="#8fa2ff" stroke-opacity="0.126" stroke-width="1.19"/><path d="M-39.3 52.3 l11.2 43.1" stroke="#8fa2ff" stroke-opacity="0.085" stroke-width="1.29"/><path d="M484.6 -7.9 l8.9 34.1" stroke="#8fa2ff" stroke-opacity="0.111" stroke-width="0.79"/><path d="M75.0 106.3 l11.7 44.9" stroke="#8fa2ff" stroke-opacity="0.110" stroke-width="0.68"/><path d="M285.2 4.5 l4.1 15.9" stroke="#8fa2ff" stroke-opacity="0.113" stroke-width="0.72"/><path d="M698.3 156.9 l5.2 20.1" stroke="#8fa2ff" stroke-opacity="0.107" stroke-width="0.69"/><path d="M809.7 11.3 l7.1 27.5" stroke="#8fa2ff" stroke-opacity="0.063" stroke-width="0.79"/><path d="M1241.6 313.5 l6.2 23.7" stroke="#8fa2ff" stroke-opacity="0.120" stroke-width="0.75"/><path d="M480.4 335.9 l9.0 34.5" stroke="#8fa2ff" stroke-opacity="0.054" stroke-width="1.29"/><path d="M241.5 73.6 l10.1 38.7" stroke="#8fa2ff" stroke-opacity="0.073" stroke-width="0.81"/><path d="M56.9 -0.3 l8.5 32.6" stroke="#8fa2ff" stroke-opacity="0.066" stroke-width="1.02"/><path d="M450.6 159.4 l11.6 44.7" stroke="#8fa2ff" stroke-opacity="0.086" stroke-width="1.00"/><path d="M1103.8 40.4 l4.9 18.9" stroke="#8fa2ff" stroke-opacity="0.122" stroke-width="1.17"/><path d="M289.3 43.5 l9.8 37.7" stroke="#8fa2ff" stroke-opacity="0.125" stroke-width="0.74"/><path d="M1214.2 348.2 l8.7 33.3" stroke="#8fa2ff" stroke-opacity="0.081" stroke-width="0.67"/><path d="M11.1 383.6 l5.6 21.6" stroke="#8fa2ff" stroke-opacity="0.105" stroke-width="0.78"/><path d="M1047.3 222.4 l6.1 23.4" stroke="#8fa2ff" stroke-opacity="0.060" stroke-width="1.10"/><path d="M50.8 60.5 l8.3 31.9" stroke="#8fa2ff" stroke-opacity="0.118" stroke-width="1.03"/><path d="M329.9 363.6 l5.3 20.5" stroke="#8fa2ff" stroke-opacity="0.047" stroke-width="0.79"/><path d="M548.3 -13.4 l5.1 19.6" stroke="#8fa2ff" stroke-opacity="0.077" stroke-width="1.00"/><path d="M133.7 119.3 l11.1 42.5" stroke="#8fa2ff" stroke-opacity="0.128" stroke-width="1.06"/><path d="M872.4 217.2 l4.8 18.5" stroke="#8fa2ff" stroke-opacity="0.048" stroke-width="0.61"/><path d="M1161.5 268.4 l11.7 44.8" stroke="#8fa2ff" stroke-opacity="0.047" stroke-width="1.05"/><path d="M596.6 281.4 l6.3 24.2" stroke="#8fa2ff" stroke-opacity="0.130" stroke-width="0.65"/><path d="M680.8 284.3 l11.1 42.8" stroke="#8fa2ff" stroke-opacity="0.108" stroke-width="1.09"/><path d="M1007.1 362.6 l6.6 25.3" stroke="#8fa2ff" stroke-opacity="0.103" stroke-width="1.23"/><path d="M1109.9 143.5 l10.2 39.3" stroke="#8fa2ff" stroke-opacity="0.118" stroke-width="1.00"/><path d="M784.9 128.2 l8.5 32.6" stroke="#8fa2ff" stroke-opacity="0.097" stroke-width="0.66"/><path d="M804.0 397.1 l11.0 42.2" stroke="#8fa2ff" stroke-opacity="0.107" stroke-width="0.87"/><path d="M930.3 215.6 l7.3 28.1" stroke="#8fa2ff" stroke-opacity="0.116" stroke-width="0.66"/><path d="M950.3 -26.9 l8.6 33.2" stroke="#8fa2ff" stroke-opacity="0.086" stroke-width="0.76"/><path d="M881.8 178.8 l8.8 33.7" stroke="#8fa2ff" stroke-opacity="0.123" stroke-width="0.78"/><path d="M-25.1 92.5 l9.3 35.7" stroke="#8fa2ff" stroke-opacity="0.063" stroke-width="0.72"/><path d="M1155.6 250.4 l7.3 28.1" stroke="#8fa2ff" stroke-opacity="0.121" stroke-width="0.83"/><path d="M839.0 47.3 l7.2 27.8" stroke="#8fa2ff" stroke-opacity="0.114" stroke-width="1.24"/><path d="M1122.0 129.1 l8.5 32.7" stroke="#8fa2ff" stroke-opacity="0.072" stroke-width="0.70"/><path d="M615.3 328.3 l10.7 41.2" stroke="#8fa2ff" stroke-opacity="0.106" stroke-width="1.27"/><path d="M325.4 34.4 l7.4 28.4" stroke="#8fa2ff" stroke-opacity="0.069" stroke-width="0.75"/><path d="M506.5 235.3 l7.7 29.8" stroke="#8fa2ff" stroke-opacity="0.072" stroke-width="1.19"/><path d="M1256.3 159.1 l4.3 16.4" stroke="#8fa2ff" stroke-opacity="0.048" stroke-width="1.21"/><path d="M14.8 271.8 l8.4 32.3" stroke="#8fa2ff" stroke-opacity="0.072" stroke-width="1.15"/><path d="M-14.8 19.8 l7.4 28.6" stroke="#8fa2ff" stroke-opacity="0.048" stroke-width="1.18"/><path d="M273.4 22.0 l4.0 15.5" stroke="#8fa2ff" stroke-opacity="0.099" stroke-width="0.91"/><path d="M791.6 248.2 l10.4 39.8" stroke="#8fa2ff" stroke-opacity="0.126" stroke-width="1.08"/><path d="M223.1 169.1 l5.1 19.7" stroke="#8fa2ff" stroke-opacity="0.046" stroke-width="0.93"/><path d="M902.7 38.8 l5.9 22.7" stroke="#8fa2ff" stroke-opacity="0.075" stroke-width="1.09"/><path d="M647.0 230.4 l9.9 38.2" stroke="#8fa2ff" stroke-opacity="0.079" stroke-width="1.15"/><path d="M1156.2 -1.6 l11.4 43.8" stroke="#8fa2ff" stroke-opacity="0.107" stroke-width="0.69"/><path d="M558.7 235.2 l11.2 43.1" stroke="#8fa2ff" stroke-opacity="0.077" stroke-width="1.00"/><path d="M1120.7 310.6 l11.5 44.2" stroke="#8fa2ff" stroke-opacity="0.085" stroke-width="1.06"/><path d="M230.5 277.7 l10.4 40.2" stroke="#8fa2ff" stroke-opacity="0.100" stroke-width="1.10"/><path d="M241.6 356.0 l11.8 45.4" stroke="#8fa2ff" stroke-opacity="0.128" stroke-width="0.98"/><path d="M1003.8 101.0 l11.2 43.1" stroke="#8fa2ff" stroke-opacity="0.118" stroke-width="0.84"/><path d="M69.3 154.0 l8.2 31.6" stroke="#8fa2ff" stroke-opacity="0.110" stroke-width="0.94"/><path d="M-2.5 316.0 l4.2 16.0" stroke="#8fa2ff" stroke-opacity="0.113" stroke-width="0.72"/><path d="M402.2 306.7 l4.8 18.5" stroke="#8fa2ff" stroke-opacity="0.058" stroke-width="0.96"/><path d="M915.1 329.6 l9.4 36.1" stroke="#8fa2ff" stroke-opacity="0.125" stroke-width="0.94"/><path d="M1212.9 -2.1 l5.5 21.1" stroke="#8fa2ff" stroke-opacity="0.090" stroke-width="0.80"/><path d="M922.1 241.1 l8.0 30.7" stroke="#8fa2ff" stroke-opacity="0.117" stroke-width="0.99"/><path d="M371.4 127.7 l10.7 41.0" stroke="#8fa2ff" stroke-opacity="0.122" stroke-width="0.75"/><path d="M1083.0 386.1 l8.0 30.8" stroke="#8fa2ff" stroke-opacity="0.094" stroke-width="0.74"/><path d="M667.4 181.4 l8.7 33.4" stroke="#8fa2ff" stroke-opacity="0.048" stroke-width="1.28"/><path d="M641.1 136.3 l10.3 39.6" stroke="#8fa2ff" stroke-opacity="0.093" stroke-width="0.94"/><path d="M872.1 -11.0 l8.1 31.2" stroke="#8fa2ff" stroke-opacity="0.080" stroke-width="1.27"/><path d="M1178.9 78.5 l7.6 29.1" stroke="#8fa2ff" stroke-opacity="0.056" stroke-width="0.90"/><path d="M1036.7 356.2 l7.6 29.2" stroke="#8fa2ff" stroke-opacity="0.072" stroke-width="0.73"/><path d="M775.6 367.1 l4.7 18.1" stroke="#8fa2ff" stroke-opacity="0.111" stroke-width="0.62"/><path d="M216.2 60.0 l9.4 36.0" stroke="#8fa2ff" stroke-opacity="0.073" stroke-width="0.85"/><path d="M778.1 6.1 l9.7 37.4" stroke="#8fa2ff" stroke-opacity="0.056" stroke-width="0.96"/><path d="M290.7 47.0 l8.1 31.0" stroke="#8fa2ff" stroke-opacity="0.082" stroke-width="0.86"/><path d="M505.7 192.9 l5.0 19.1" stroke="#8fa2ff" stroke-opacity="0.063" stroke-width="1.04"/><path d="M802.8 193.0 l10.7 41.2" stroke="#8fa2ff" stroke-opacity="0.097" stroke-width="1.20"/><path d="M267.1 285.9 l10.4 39.9" stroke="#8fa2ff" stroke-opacity="0.122" stroke-width="0.82"/><path d="M375.8 366.0 l5.5 21.0" stroke="#8fa2ff" stroke-opacity="0.130" stroke-width="1.22"/><path d="M136.8 65.3 l9.7 37.3" stroke="#8fa2ff" stroke-opacity="0.067" stroke-width="0.67"/><path d="M1058.5 145.5 l10.2 39.3" stroke="#8fa2ff" stroke-opacity="0.056" stroke-width="0.88"/><path d="M864.5 -32.2 l5.3 20.4" stroke="#8fa2ff" stroke-opacity="0.103" stroke-width="1.24"/><path d="M1238.3 10.8 l7.8 30.2" stroke="#8fa2ff" stroke-opacity="0.110" stroke-width="0.95"/><path d="M865.1 43.2 l4.2 16.3" stroke="#8fa2ff" stroke-opacity="0.054" stroke-width="0.63"/><path d="M688.2 186.5 l8.4 32.2" stroke="#8fa2ff" stroke-opacity="0.058" stroke-width="0.73"/><path d="M229.2 329.7 l11.9 45.7" stroke="#8fa2ff" stroke-opacity="0.124" stroke-width="0.67"/><path d="M41.8 378.7 l7.5 28.8" stroke="#8fa2ff" stroke-opacity="0.110" stroke-width="0.83"/><path d="M576.4 186.7 l7.2 27.8" stroke="#8fa2ff" stroke-opacity="0.096" stroke-width="0.61"/><path d="M885.4 331.5 l5.1 19.8" stroke="#8fa2ff" stroke-opacity="0.084" stroke-width="1.12"/><path d="M495.0 45.9 l5.0 19.3" stroke="#8fa2ff" stroke-opacity="0.089" stroke-width="0.61"/><path d="M1139.0 312.8 l9.5 36.5" stroke="#8fa2ff" stroke-opacity="0.118" stroke-width="1.04"/><path d="M494.0 223.8 l7.8 30.1" stroke="#8fa2ff" stroke-opacity="0.129" stroke-width="1.16"/><path d="M300.9 361.0 l9.8 37.8" stroke="#8fa2ff" stroke-opacity="0.111" stroke-width="1.17"/><path d="M495.4 354.5 l11.0 42.2" stroke="#8fa2ff" stroke-opacity="0.104" stroke-width="1.14"/><path d="M970.1 138.5 l9.7 37.1" stroke="#8fa2ff" stroke-opacity="0.051" stroke-width="0.84"/><path d="M578.9 -35.3 l6.6 25.4" stroke="#8fa2ff" stroke-opacity="0.099" stroke-width="1.04"/><path d="M266.4 375.7 l9.2 35.3" stroke="#8fa2ff" stroke-opacity="0.074" stroke-width="1.06"/><path d="M711.8 194.6 l6.9 26.5" stroke="#8fa2ff" stroke-opacity="0.130" stroke-width="1.05"/><path d="M885.7 295.2 l11.8 45.4" stroke="#8fa2ff" stroke-opacity="0.047" stroke-width="1.03"/><path d="M935.2 72.9 l7.0 26.8" stroke="#8fa2ff" stroke-opacity="0.050" stroke-width="0.74"/><path d="M455.9 3.3 l5.7 22.0" stroke="#8fa2ff" stroke-opacity="0.122" stroke-width="0.99"/><path d="M630.3 385.5 l8.4 32.2" stroke="#8fa2ff" stroke-opacity="0.130" stroke-width="1.05"/><path d="M1028.6 -6.5 l8.6 33.1" stroke="#8fa2ff" stroke-opacity="0.110" stroke-width="0.63"/><path d="M1187.8 30.4 l7.6 29.1" stroke="#8fa2ff" stroke-opacity="0.060" stroke-width="0.95"/><path d="M766.7 -14.2 l11.5 44.2" stroke="#8fa2ff" stroke-opacity="0.081" stroke-width="0.97"/><path d="M749.1 120.9 l6.0 23.1" stroke="#8fa2ff" stroke-opacity="0.101" stroke-width="0.99"/><path d="M334.3 275.3 l6.1 23.5" stroke="#8fa2ff" stroke-opacity="0.047" stroke-width="0.77"/><path d="M16.5 28.9 l9.9 38.1" stroke="#8fa2ff" stroke-opacity="0.078" stroke-width="1.23"/><path d="M947.8 -17.9 l11.9 45.6" stroke="#8fa2ff" stroke-opacity="0.125" stroke-width="0.65"/><path d="M1155.3 149.0 l7.6 29.3" stroke="#8fa2ff" stroke-opacity="0.128" stroke-width="0.77"/><path d="M650.8 372.4 l9.7 37.1" stroke="#8fa2ff" stroke-opacity="0.085" stroke-width="1.29"/><path d="M1038.0 225.6 l4.6 17.7" stroke="#8fa2ff" stroke-opacity="0.098" stroke-width="0.92"/><path d="M228.8 -17.1 l8.0 30.9" stroke="#8fa2ff" stroke-opacity="0.056" stroke-width="0.91"/><path d="M841.6 160.4 l5.8 22.4" stroke="#8fa2ff" stroke-opacity="0.095" stroke-width="0.89"/><path d="M986.9 193.5 l11.9 45.9" stroke="#8fa2ff" stroke-opacity="0.126" stroke-width="1.11"/><path d="M274.7 10.1 l11.1 42.6" stroke="#8fa2ff" stroke-opacity="0.112" stroke-width="1.04"/><path d="M434.1 79.5 l9.3 35.9" stroke="#8fa2ff" stroke-opacity="0.093" stroke-width="1.01"/><path d="M795.7 291.5 l5.2 20.1" stroke="#8fa2ff" stroke-opacity="0.067" stroke-width="1.29"/><path d="M1168.8 346.7 l4.0 15.3" stroke="#8fa2ff" stroke-opacity="0.051" stroke-width="0.79"/><path d="M521.3 234.3 l4.5 17.3" stroke="#8fa2ff" stroke-opacity="0.091" stroke-width="0.65"/><path d="M74.1 257.6 l8.2 31.6" stroke="#8fa2ff" stroke-opacity="0.099" stroke-width="0.86"/><path d="M591.7 52.7 l6.5 25.0" stroke="#8fa2ff" stroke-opacity="0.108" stroke-width="1.19"/><path d="M58.1 12.7 l10.4 39.9" stroke="#8fa2ff" stroke-opacity="0.098" stroke-width="1.14"/><path d="M241.4 146.7 l5.8 22.3" stroke="#8fa2ff" stroke-opacity="0.114" stroke-width="0.86"/><path d="M822.8 395.2 l6.3 24.4" stroke="#8fa2ff" stroke-opacity="0.092" stroke-width="1.12"/><path d="M1175.5 148.2 l6.7 25.8" stroke="#8fa2ff" stroke-opacity="0.054" stroke-width="1.21"/><path d="M63.6 -3.5 l8.3 32.1" stroke="#8fa2ff" stroke-opacity="0.086" stroke-width="1.08"/><path d="M354.5 301.2 l4.3 16.4" stroke="#8fa2ff" stroke-opacity="0.064" stroke-width="1.06"/><path d="M67.9 93.7 l9.7 37.2" stroke="#8fa2ff" stroke-opacity="0.104" stroke-width="0.80"/><path d="M148.7 117.4 l9.7 37.2" stroke="#8fa2ff" stroke-opacity="0.076" stroke-width="0.68"/><path d="M896.2 210.5 l11.3 43.4" stroke="#8fa2ff" stroke-opacity="0.125" stroke-width="1.24"/><path d="M538.2 313.3 l6.2 23.8" stroke="#8fa2ff" stroke-opacity="0.072" stroke-width="0.88"/><path d="M1193.8 353.7 l5.7 21.9" stroke="#8fa2ff" stroke-opacity="0.076" stroke-width="0.86"/><path d="M439.6 134.1 l6.9 26.4" stroke="#8fa2ff" stroke-opacity="0.062" stroke-width="0.99"/><path d="M1012.1 197.8 l10.6 40.8" stroke="#8fa2ff" stroke-opacity="0.093" stroke-width="0.72"/><path d="M961.8 347.6 l6.0 23.0" stroke="#8fa2ff" stroke-opacity="0.047" stroke-width="0.96"/><path d="M678.3 209.7 l11.7 44.9" stroke="#8fa2ff" stroke-opacity="0.101" stroke-width="1.16"/><path d="M44.6 200.6 l10.2 39.2" stroke="#8fa2ff" stroke-opacity="0.053" stroke-width="0.66"/><path d="M932.9 355.6 l4.3 16.7" stroke="#8fa2ff" stroke-opacity="0.099" stroke-width="0.70"/><path d="M944.4 245.6 l5.7 21.9" stroke="#8fa2ff" stroke-opacity="0.064" stroke-width="1.14"/><path d="M648.5 296.5 l6.9 26.6" stroke="#8fa2ff" stroke-opacity="0.074" stroke-width="1.28"/><path d="M847.6 177.2 l8.1 31.2" stroke="#8fa2ff" stroke-opacity="0.106" stroke-width="1.10"/><path d="M1167.8 140.7 l10.5 40.4" stroke="#8fa2ff" stroke-opacity="0.102" stroke-width="1.20"/><path d="M1023.8 326.9 l11.0 42.4" stroke="#8fa2ff" stroke-opacity="0.126" stroke-width="1.05"/><path d="M651.5 272.4 l10.3 39.7" stroke="#8fa2ff" stroke-opacity="0.081" stroke-width="0.89"/><path d="M153.0 286.1 l11.9 45.7" stroke="#8fa2ff" stroke-opacity="0.077" stroke-width="0.72"/></g><linearGradient id="floorFade" x1="0" y1="304" x2="0" y2="400" gradientUnits="userSpaceOnUse"><stop offset="0" stop-color="#2de2e6" stop-opacity="0"/><stop offset="0.35" stop-color="#2de2e6" stop-opacity="0.32"/><stop offset="1" stop-color="#2de2e6" stop-opacity="0.448"/></linearGradient><path d="M578.6 304.0 L-896.0 400.0 M586.2 304.0 L-704.0 400.0 M593.9 304.0 L-512.0 400.0 M601.6 304.0 L-320.0 400.0 M609.3 304.0 L-128.0 400.0 M617.0 304.0 L64.0 400.0 M624.6 304.0 L256.0 400.0 M632.3 304.0 L448.0 400.0 M640.0 304.0 L640.0 400.0 M647.7 304.0 L832.0 400.0 M655.4 304.0 L1024.0 400.0 M663.0 304.0 L1216.0 400.0 M670.7 304.0 L1408.0 400.0 M678.4 304.0 L1600.0 400.0 M686.1 304.0 L1792.0 400.0 M693.8 304.0 L1984.0 400.0 M701.4 304.0 L2176.0 400.0 M0 305.0 H1280 M0 308.1 H1280 M0 313.6 H1280 M0 321.5 H1280 M0 331.9 H1280 M0 345.0 H1280 M0 360.6 H1280 M0 379.0 H1280 M0 400.0 H1280" stroke="url(#floorFade)" stroke-width="1.2" fill="none" filter="url(#b6)"/><path d="M578.6 304.0 L-896.0 400.0 M586.2 304.0 L-704.0 400.0 M593.9 304.0 L-512.0 400.0 M601.6 304.0 L-320.0 400.0 M609.3 304.0 L-128.0 400.0 M617.0 304.0 L64.0 400.0 M624.6 304.0 L256.0 400.0 M632.3 304.0 L448.0 400.0 M640.0 304.0 L640.0 400.0 M647.7 304.0 L832.0 400.0 M655.4 304.0 L1024.0 400.0 M663.0 304.0 L1216.0 400.0 M670.7 304.0 L1408.0 400.0 M678.4 304.0 L1600.0 400.0 M686.1 304.0 L1792.0 400.0 M693.8 304.0 L1984.0 400.0 M701.4 304.0 L2176.0 400.0 M0 305.0 H1280 M0 308.1 H1280 M0 313.6 H1280 M0 321.5 H1280 M0 331.9 H1280 M0 345.0 H1280 M0 360.6 H1280 M0 379.0 H1280 M0 400.0 H1280" stroke="url(#floorFade)" stroke-width="0.8" fill="none"/><rect y="304" width="1280" height="1.2" fill="#ff3ea5" opacity="0.55"/><g transform="translate(0 614) scale(1 -1)" opacity="0.22" filter="url(#b2)"><g><radialGradient id="reflBroth" cx="0.5" cy="0.15" r="0.9"><stop offset="0" stop-color="#fff1cf"/><stop offset="0.55" stop-color="#ffb547"/><stop offset="1" stop-color="#7a3a12"/></radialGradient><linearGradient id="reflBody" x1="0" y1="0" x2="0" y2="1"><stop offset="0" stop-color="#1d1640"/><stop offset="1" stop-color="#0a0818"/></linearGradient><clipPath id="reflLevel"><rect x="0" y="6.84" width="18" height="20"/></clipPath><ellipse cx="179.8" cy="149.1" rx="115.9" ry="39.04" fill="#ffb547" opacity="0.30" filter="url(#b5)"/><g transform="translate(70 82) scale(12.2)"><path d="M10 3.7 L14.4 0.4 M12.4 4 L16.8 0.7" fill="none" stroke-linecap="round" stroke-linejoin="round" stroke="#ff3ea5" stroke-width="2.21" opacity="0.495" filter="url(#b7)"/><path d="M10 3.7 L14.4 0.4 M12.4 4 L16.8 0.7" fill="none" stroke-linecap="round" stroke-linejoin="round" stroke="#ff3ea5" stroke-width="1.19" opacity="0.72" filter="url(#b8)"/><path d="M10 3.7 L14.4 0.4 M12.4 4 L16.8 0.7" fill="none" stroke-linecap="round" stroke-linejoin="round" stroke="#ff3ea5" stroke-width="0.85"/><path d="M10 3.7 L14.4 0.4 M12.4 4 L16.8 0.7" fill="none" stroke-linecap="round" stroke-linejoin="round" stroke="#ffe0f0" stroke-width="0.357" opacity="0.9"/></g><path transform="translate(70 82) scale(12.2)" d="M12.84 0.88 L13.50 1.76 M13.19 0.62 L13.85 1.50 M13.54 0.36 L14.20 1.24" stroke="#ffb547" stroke-width="0.32" stroke-linecap="round" opacity="0.95"/><path transform="translate(70 82) scale(12.2)" d="M15.24 1.18 L15.90 2.06 M15.59 0.92 L16.25 1.80 M15.94 0.66 L16.60 1.54" stroke="#ffb547" stroke-width="0.32" stroke-linecap="round" opacity="0.95"/><path transform="translate(70 82) scale(12.2)" d="M1.5 4.5 C1.5 11.6 3.2 13.5 9 13.5 C14.8 13.5 16.5 11.6 16.5 4.5 Z" fill="url(#reflBody)"/><path transform="translate(70 82) scale(12.2)" d="M1.5 4.5 C1.5 11.6 3.2 13.5 9 13.5 C14.8 13.5 16.5 11.6 16.5 4.5 Z" fill="url(#reflBroth)" clip-path="url(#reflLevel)" opacity="0.95"/><path transform="translate(70 82) scale(12.2)" d="M3.0 7.5 Q3.4 7.1 3.8 7.5 Q4.2 8.0 4.6 7.5 Q5.0 7.1 5.4 7.5 Q5.8 8.0 6.2 7.5 Q6.6 7.1 7.0 7.5 Q7.4 8.0 7.8 7.5 Q8.2 7.1 8.6 7.5 Q9.0 8.0 9.4 7.5 Q9.8 7.1 10.2 7.5 Q10.6 8.0 11.0 7.5 Q11.4 7.1 11.8 7.5 Q12.2 8.0 12.6 7.5 Q13.0 7.1 13.4 7.5 Q13.8 8.0 14.2 7.5 Q14.6 7.1 15.0 7.5 M3.4 8.6 Q3.9 8.2 4.3 8.6 Q4.8 9.1 5.2 8.6 Q5.7 8.2 6.2 8.6 Q6.6 9.1 7.1 8.6 Q7.6 8.2 8.0 8.6 Q8.5 9.1 9.0 8.6 Q9.4 8.2 9.9 8.6 Q10.3 9.1 10.8 8.6 Q11.3 8.2 11.7 8.6 Q12.2 9.1 12.7 8.6 Q13.1 8.2 13.6 8.6 Q14.0 9.1 14.5 8.6 Q14.6 8.2 14.7 8.6 M3.8 9.7 Q4.3 9.3 4.8 9.7 Q5.4 10.2 5.9 9.7 Q6.4 9.3 6.9 9.7 Q7.5 10.2 8.0 9.7 Q8.5 9.3 9.0 9.7 Q9.6 10.2 10.1 9.7 Q10.6 9.3 11.2 9.7 Q11.7 10.2 12.2 9.7 Q12.7 9.3 13.3 9.7 Q13.8 10.2 14.3 9.7 Q14.4 9.3 14.4 9.7" fill="none" stroke="#fff1cf" stroke-width="0.32" stroke-linecap="round" opacity="0.85"/><g transform="translate(70 82) scale(12.2)"><path d="M0.5 4.5 H17.5 M1.5 4.5 C1.5 11.6 3.2 13.5 9 13.5 C14.8 13.5 16.5 11.6 16.5 4.5 M6 15.5 H12" fill="none" stroke-linecap="round" stroke-linejoin="round" stroke="#2de2e6" stroke-width="2.21" opacity="0.55" filter="url(#b7)"/><path d="M0.5 4.5 H17.5 M1.5 4.5 C1.5 11.6 3.2 13.5 9 13.5 C14.8 13.5 16.5 11.6 16.5 4.5 M6 15.5 H12" fill="none" stroke-linecap="round" stroke-linejoin="round" stroke="#2de2e6" stroke-width="1.19" opacity="0.8" filter="url(#b8)"/><path d="M0.5 4.5 H17.5 M1.5 4.5 C1.5 11.6 3.2 13.5 9 13.5 C14.8 13.5 16.5 11.6 16.5 4.5 M6 15.5 H12" fill="none" stroke-linecap="round" stroke-linejoin="round" stroke="#2de2e6" stroke-width="0.85"/><path d="M0.5 4.5 H17.5 M1.5 4.5 C1.5 11.6 3.2 13.5 9 13.5 C14.8 13.5 16.5 11.6 16.5 4.5 M6 15.5 H12" fill="none" stroke-linecap="round" stroke-linejoin="round" stroke="#d6fdff" stroke-width="0.357" opacity="0.9"/></g></g></g><g transform="translate(122 32) scale(1.15)" fill="none" stroke-linecap="round"><path d="M0 60 C-10 44 10 34 0 16 C-6 6 2 0 0 -6 M26 64 C14 46 38 34 26 12 C20 0 28 -8 26 -16 M52 60 C42 44 62 34 52 16 C46 6 54 0 52 -6" stroke="#d6fdff" stroke-width="7" opacity="0.18" filter="url(#b9)"/><path d="M0 60 C-10 44 10 34 0 16 C-6 6 2 0 0 -6 M26 64 C14 46 38 34 26 12 C20 0 28 -8 26 -16 M52 60 C42 44 62 34 52 16 C46 6 54 0 52 -6" stroke="#d6fdff" stroke-width="2.4" opacity="0.55"/></g><g><radialGradient id="mainBroth" cx="0.5" cy="0.15" r="0.9"><stop offset="0" stop-color="#fff1cf"/><stop offset="0.55" stop-color="#ffb547"/><stop offset="1" stop-color="#7a3a12"/></radialGradient><linearGradient id="mainBody" x1="0" y1="0" x2="0" y2="1"><stop offset="0" stop-color="#1d1640"/><stop offset="1" stop-color="#0a0818"/></linearGradient><clipPath id="mainLevel"><rect x="0" y="6.84" width="18" height="20"/></clipPath><ellipse cx="179.8" cy="149.1" rx="115.9" ry="39.04" fill="#ffb547" opacity="0.30" filter="url(#b5)"/><g transform="translate(70 82) scale(12.2)"><path d="M10 3.7 L14.4 0.4 M12.4 4 L16.8 0.7" fill="none" stroke-linecap="round" stroke-linejoin="round" stroke="#ff3ea5" stroke-width="2.21" opacity="0.495" filter="url(#b7)"/><path d="M10 3.7 L14.4 0.4 M12.4 4 L16.8 0.7" fill="none" stroke-linecap="round" stroke-linejoin="round" stroke="#ff3ea5" stroke-width="1.19" opacity="0.72" filter="url(#b8)"/><path d="M10 3.7 L14.4 0.4 M12.4 4 L16.8 0.7" fill="none" stroke-linecap="round" stroke-linejoin="round" stroke="#ff3ea5" stroke-width="0.85"/><path d="M10 3.7 L14.4 0.4 M12.4 4 L16.8 0.7" fill="none" stroke-linecap="round" stroke-linejoin="round" stroke="#ffe0f0" stroke-width="0.357" opacity="0.9"/></g><path transform="translate(70 82) scale(12.2)" d="M12.84 0.88 L13.50 1.76 M13.19 0.62 L13.85 1.50 M13.54 0.36 L14.20 1.24" stroke="#ffb547" stroke-width="0.32" stroke-linecap="round" opacity="0.95"/><path transform="translate(70 82) scale(12.2)" d="M15.24 1.18 L15.90 2.06 M15.59 0.92 L16.25 1.80 M15.94 0.66 L16.60 1.54" stroke="#ffb547" stroke-width="0.32" stroke-linecap="round" opacity="0.95"/><path transform="translate(70 82) scale(12.2)" d="M1.5 4.5 C1.5 11.6 3.2 13.5 9 13.5 C14.8 13.5 16.5 11.6 16.5 4.5 Z" fill="url(#mainBody)"/><path transform="translate(70 82) scale(12.2)" d="M1.5 4.5 C1.5 11.6 3.2 13.5 9 13.5 C14.8 13.5 16.5 11.6 16.5 4.5 Z" fill="url(#mainBroth)" clip-path="url(#mainLevel)" opacity="0.95"/><path transform="translate(70 82) scale(12.2)" d="M3.0 7.5 Q3.4 7.1 3.8 7.5 Q4.2 8.0 4.6 7.5 Q5.0 7.1 5.4 7.5 Q5.8 8.0 6.2 7.5 Q6.6 7.1 7.0 7.5 Q7.4 8.0 7.8 7.5 Q8.2 7.1 8.6 7.5 Q9.0 8.0 9.4 7.5 Q9.8 7.1 10.2 7.5 Q10.6 8.0 11.0 7.5 Q11.4 7.1 11.8 7.5 Q12.2 8.0 12.6 7.5 Q13.0 7.1 13.4 7.5 Q13.8 8.0 14.2 7.5 Q14.6 7.1 15.0 7.5 M3.4 8.6 Q3.9 8.2 4.3 8.6 Q4.8 9.1 5.2 8.6 Q5.7 8.2 6.2 8.6 Q6.6 9.1 7.1 8.6 Q7.6 8.2 8.0 8.6 Q8.5 9.1 9.0 8.6 Q9.4 8.2 9.9 8.6 Q10.3 9.1 10.8 8.6 Q11.3 8.2 11.7 8.6 Q12.2 9.1 12.7 8.6 Q13.1 8.2 13.6 8.6 Q14.0 9.1 14.5 8.6 Q14.6 8.2 14.7 8.6 M3.8 9.7 Q4.3 9.3 4.8 9.7 Q5.4 10.2 5.9 9.7 Q6.4 9.3 6.9 9.7 Q7.5 10.2 8.0 9.7 Q8.5 9.3 9.0 9.7 Q9.6 10.2 10.1 9.7 Q10.6 9.3 11.2 9.7 Q11.7 10.2 12.2 9.7 Q12.7 9.3 13.3 9.7 Q13.8 10.2 14.3 9.7 Q14.4 9.3 14.4 9.7" fill="none" stroke="#fff1cf" stroke-width="0.32" stroke-linecap="round" opacity="0.85"/><g transform="translate(70 82) scale(12.2)"><path d="M0.5 4.5 H17.5 M1.5 4.5 C1.5 11.6 3.2 13.5 9 13.5 C14.8 13.5 16.5 11.6 16.5 4.5 M6 15.5 H12" fill="none" stroke-linecap="round" stroke-linejoin="round" stroke="#2de2e6" stroke-width="2.21" opacity="0.55" filter="url(#b7)"/><path d="M0.5 4.5 H17.5 M1.5 4.5 C1.5 11.6 3.2 13.5 9 13.5 C14.8 13.5 16.5 11.6 16.5 4.5 M6 15.5 H12" fill="none" stroke-linecap="round" stroke-linejoin="round" stroke="#2de2e6" stroke-width="1.19" opacity="0.8" filter="url(#b8)"/><path d="M0.5 4.5 H17.5 M1.5 4.5 C1.5 11.6 3.2 13.5 9 13.5 C14.8 13.5 16.5 11.6 16.5 4.5 M6 15.5 H12" fill="none" stroke-linecap="round" stroke-linejoin="round" stroke="#2de2e6" stroke-width="0.85"/><path d="M0.5 4.5 H17.5 M1.5 4.5 C1.5 11.6 3.2 13.5 9 13.5 C14.8 13.5 16.5 11.6 16.5 4.5 M6 15.5 H12" fill="none" stroke-linecap="round" stroke-linejoin="round" stroke="#d6fdff" stroke-width="0.357" opacity="0.9"/></g></g><g transform="translate(396 92) scale(1.12) translate(0 0)"><path d="M0 100 V0 H36 A26 26 0 0 1 36 52 H0 M30 52 L70 100" fill="none" stroke-linecap="round" stroke-linejoin="round" stroke="#2de2e6" stroke-width="23.4" opacity="0.55" filter="url(#b0)"/><path d="M0 100 V0 H36 A26 26 0 0 1 36 52 H0 M30 52 L70 100" fill="none" stroke-linecap="round" stroke-linejoin="round" stroke="#2de2e6" stroke-width="12.6" opacity="0.8" filter="url(#b1)"/><path d="M0 100 V0 H36 A26 26 0 0 1 36 52 H0 M30 52 L70 100" fill="none" stroke-linecap="round" stroke-linejoin="round" stroke="#2de2e6" stroke-width="9"/><path d="M0 100 V0 H36 A26 26 0 0 1 36 52 H0 M30 52 L70 100" fill="none" stroke-linecap="round" stroke-linejoin="round" stroke="#d6fdff" stroke-width="3.78" opacity="0.9"/></g><g transform="translate(396 92) scale(1.12) translate(96 0)"><path d="M0 100 V36 A36 36 0 0 1 72 36 V100 M0 62 H72" fill="none" stroke-linecap="round" stroke-linejoin="round" stroke="#2de2e6" stroke-width="23.4" opacity="0.55" filter="url(#b0)"/><path d="M0 100 V36 A36 36 0 0 1 72 36 V100 M0 62 H72" fill="none" stroke-linecap="round" stroke-linejoin="round" stroke="#2de2e6" stroke-width="12.6" opacity="0.8" filter="url(#b1)"/><path d="M0 100 V36 A36 36 0 0 1 72 36 V100 M0 62 H72" fill="none" stroke-linecap="round" stroke-linejoin="round" stroke="#2de2e6" stroke-width="9"/><path d="M0 100 V36 A36 36 0 0 1 72 36 V100 M0 62 H72" fill="none" stroke-linecap="round" stroke-linejoin="round" stroke="#d6fdff" stroke-width="3.78" opacity="0.9"/></g><g transform="translate(396 92) scale(1.12) translate(194 0)"><path d="M0 100 V0 L40 58 L80 0 V100" fill="none" stroke-linecap="round" stroke-linejoin="round" stroke="#2de2e6" stroke-width="23.4" opacity="0.55" filter="url(#b0)"/><path d="M0 100 V0 L40 58 L80 0 V100" fill="none" stroke-linecap="round" stroke-linejoin="round" stroke="#2de2e6" stroke-width="12.6" opacity="0.8" filter="url(#b1)"/><path d="M0 100 V0 L40 58 L80 0 V100" fill="none" stroke-linecap="round" stroke-linejoin="round" stroke="#2de2e6" stroke-width="9"/><path d="M0 100 V0 L40 58 L80 0 V100" fill="none" stroke-linecap="round" stroke-linejoin="round" stroke="#d6fdff" stroke-width="3.78" opacity="0.9"/></g><g transform="translate(396 92) scale(1.12) translate(300 0)"><path d="M0 70 H60 A30 30 0 1 0 54.27 87.63" fill="none" stroke-linecap="round" stroke-linejoin="round" stroke="#ff3ea5" stroke-width="23.4" opacity="0.55" filter="url(#b0)"/><path d="M0 70 H60 A30 30 0 1 0 54.27 87.63" fill="none" stroke-linecap="round" stroke-linejoin="round" stroke="#ff3ea5" stroke-width="12.6" opacity="0.8" filter="url(#b1)"/><path d="M0 70 H60 A30 30 0 1 0 54.27 87.63" fill="none" stroke-linecap="round" stroke-linejoin="round" stroke="#ff3ea5" stroke-width="9"/><path d="M0 70 H60 A30 30 0 1 0 54.27 87.63" fill="none" stroke-linecap="round" stroke-linejoin="round" stroke="#ffe0f0" stroke-width="3.78" opacity="0.9"/></g><g transform="translate(396 92) scale(1.12) translate(386 0)"><path d="M0 100 V40 M0 68 A29 28 0 0 1 58 68 V100" fill="none" stroke-linecap="round" stroke-linejoin="round" stroke="#ff3ea5" stroke-width="23.4" opacity="0.55" filter="url(#b0)"/><path d="M0 100 V40 M0 68 A29 28 0 0 1 58 68 V100" fill="none" stroke-linecap="round" stroke-linejoin="round" stroke="#ff3ea5" stroke-width="12.6" opacity="0.8" filter="url(#b1)"/><path d="M0 100 V40 M0 68 A29 28 0 0 1 58 68 V100" fill="none" stroke-linecap="round" stroke-linejoin="round" stroke="#ff3ea5" stroke-width="9"/><path d="M0 100 V40 M0 68 A29 28 0 0 1 58 68 V100" fill="none" stroke-linecap="round" stroke-linejoin="round" stroke="#ffe0f0" stroke-width="3.78" opacity="0.9"/></g><text x="400" y="256" font-family="JetBrains Mono, JetBrainsMono Nerd Font, DejaVu Sans Mono, monospace" font-size="25" fill="#b9b4d6">Memory at a glance for the Omarchy bar.</text><text x="400" y="292" font-family="JetBrains Mono, JetBrainsMono Nerd Font, DejaVu Sans Mono, monospace" font-size="25" fill="#ffb547">Find the hog. Kill it. Stop hitching.</text><rect x="400" y="314" width="239.2" height="48.3" rx="24.15" fill="#1a1b26" stroke="#2d2f45" stroke-width="1"/><clipPath id="barLevel0"><rect x="0" y="10.17" width="18" height="20"/></clipPath><path transform="translate(413.8 328.95) scale(1.15)" d="M1.5 4.5 C1.5 11.6 3.2 13.5 9 13.5 C14.8 13.5 16.5 11.6 16.5 4.5 Z" fill="#9ece6a" clip-path="url(#barLevel0)"/><path transform="translate(413.8 328.95) scale(1.15)" d="M0.5 4.5 H17.5 M1.5 4.5 C1.5 11.6 3.2 13.5 9 13.5 C14.8 13.5 16.5 11.6 16.5 4.5 M6 15.5 H12 M10 3.7 L14.4 0.4 M12.4 4 L16.8 0.7" fill="none" stroke="#a9b1d6" stroke-opacity="0.72" stroke-width="1" stroke-linecap="round" stroke-linejoin="round"/><text x="439.1" y="343.44" font-family="JetBrains Mono, JetBrainsMono Nerd Font, DejaVu Sans Mono, monospace" font-size="14.95" fill="#9ece6a">37%</text><clipPath id="barLevel1"><rect x="0" y="6.12" width="18" height="20"/></clipPath><path transform="translate(489.7 328.95) scale(1.15)" d="M1.5 4.5 C1.5 11.6 3.2 13.5 9 13.5 C14.8 13.5 16.5 11.6 16.5 4.5 Z" fill="#e0af68" clip-path="url(#barLevel1)"/><path transform="translate(489.7 328.95) scale(1.15)" d="M0.5 4.5 H17.5 M1.5 4.5 C1.5 11.6 3.2 13.5 9 13.5 C14.8 13.5 16.5 11.6 16.5 4.5 M6 15.5 H12 M10 3.7 L14.4 0.4 M12.4 4 L16.8 0.7" fill="none" stroke="#a9b1d6" stroke-opacity="0.72" stroke-width="1" stroke-linecap="round" stroke-linejoin="round"/><path transform="translate(489.7 328.95) scale(1.15)" d="M3.5 3.4 C2.8 2.5 4.2 1.6 3.5 0.4" fill="none" stroke="#e0af68" stroke-width="1" stroke-linecap="round"/><text x="515" y="343.44" font-family="JetBrains Mono, JetBrainsMono Nerd Font, DejaVu Sans Mono, monospace" font-size="14.95" fill="#e0af68">82%</text><clipPath id="barLevel2"><rect x="0" y="4.86" width="18" height="20"/></clipPath><path transform="translate(565.6 328.95) scale(1.15)" d="M1.5 4.5 C1.5 11.6 3.2 13.5 9 13.5 C14.8 13.5 16.5 11.6 16.5 4.5 Z" fill="#f7768e" clip-path="url(#barLevel2)"/><path transform="translate(565.6 328.95) scale(1.15)" d="M0.5 4.5 H17.5 M1.5 4.5 C1.5 11.6 3.2 13.5 9 13.5 C14.8 13.5 16.5 11.6 16.5 4.5 M6 15.5 H12 M10 3.7 L14.4 0.4 M12.4 4 L16.8 0.7" fill="none" stroke="#a9b1d6" stroke-opacity="0.72" stroke-width="1" stroke-linecap="round" stroke-linejoin="round"/><path transform="translate(565.6 328.95) scale(1.15)" d="M3.5 3.4 C2.8 2.5 4.2 1.6 3.5 0.4 M6 3.4 C5.3 2.5 6.7 1.6 6 0.4" fill="none" stroke="#f7768e" stroke-width="1" stroke-linecap="round"/><text x="590.9" y="343.44" font-family="JetBrains Mono, JetBrainsMono Nerd Font, DejaVu Sans Mono, monospace" font-size="14.95" fill="#f7768e">96%</text><rect x="1112" y="48" width="90.48" height="285.36" rx="9.744" fill="#0b0918" stroke="#2de2e6" stroke-opacity="0.55" stroke-width="2"/><rect x="1112" y="48" width="90.48" height="285.36" rx="9.744" fill="none" stroke="#2de2e6" stroke-opacity="0.35" stroke-width="6" filter="url(#b2)"/><g transform="translate(1128.24 64.24) scale(0.58)"><path d="M30 14 H70 M18 38 H80 C80 64 62 86 28 95" fill="none" stroke-linecap="round" stroke-linejoin="round" stroke="#ff3ea5" stroke-width="23.4" opacity="0.55" filter="url(#b3)"/><path d="M30 14 H70 M18 38 H80 C80 64 62 86 28 95" fill="none" stroke-linecap="round" stroke-linejoin="round" stroke="#ff3ea5" stroke-width="12.6" opacity="0.8" filter="url(#b4)"/><path d="M30 14 H70 M18 38 H80 C80 64 62 86 28 95" fill="none" stroke-linecap="round" stroke-linejoin="round" stroke="#ff3ea5" stroke-width="9"/><path d="M30 14 H70 M18 38 H80 C80 64 62 86 28 95" fill="none" stroke-linecap="round" stroke-linejoin="round" stroke="#ffe0f0" stroke-width="3.78" opacity="0.9"/></g><g transform="translate(1128.24 129.2) scale(0.58)"><path d="M50 10 V90" fill="none" stroke-linecap="round" stroke-linejoin="round" stroke="#ff3ea5" stroke-width="23.4" opacity="0.55" filter="url(#b3)"/><path d="M50 10 V90" fill="none" stroke-linecap="round" stroke-linejoin="round" stroke="#ff3ea5" stroke-width="12.6" opacity="0.8" filter="url(#b4)"/><path d="M50 10 V90" fill="none" stroke-linecap="round" stroke-linejoin="round" stroke="#ff3ea5" stroke-width="9"/><path d="M50 10 V90" fill="none" stroke-linecap="round" stroke-linejoin="round" stroke="#ffe0f0" stroke-width="3.78" opacity="0.9"/></g><g transform="translate(1128.24 194.16) scale(0.58)"><path d="M76 10 C70 48 50 76 16 93 M28 38 C44 50 58 62 74 80" fill="none" stroke-linecap="round" stroke-linejoin="round" stroke="#ff3ea5" stroke-width="23.4" opacity="0.55" filter="url(#b3)"/><path d="M76 10 C70 48 50 76 16 93 M28 38 C44 50 58 62 74 80" fill="none" stroke-linecap="round" stroke-linejoin="round" stroke="#ff3ea5" stroke-width="12.6" opacity="0.8" filter="url(#b4)"/><path d="M76 10 C70 48 50 76 16 93 M28 38 C44 50 58 62 74 80" fill="none" stroke-linecap="round" stroke-linejoin="round" stroke="#ff3ea5" stroke-width="9"/><path d="M76 10 C70 48 50 76 16 93 M28 38 C44 50 58 62 74 80" fill="none" stroke-linecap="round" stroke-linejoin="round" stroke="#ffe0f0" stroke-width="3.78" opacity="0.9"/></g><g transform="translate(1128.24 259.12) scale(0.58)"><path d="M18 28 C26 30 32 34 38 40 M20 90 C50 84 72 62 84 22" fill="none" stroke-linecap="round" stroke-linejoin="round" stroke="#ff3ea5" stroke-width="23.4" opacity="0.55" filter="url(#b3)"/><path d="M18 28 C26 30 32 34 38 40 M20 90 C50 84 72 62 84 22" fill="none" stroke-linecap="round" stroke-linejoin="round" stroke="#ff3ea5" stroke-width="12.6" opacity="0.8" filter="url(#b4)"/><path d="M18 28 C26 30 32 34 38 40 M20 90 C50 84 72 62 84 22" fill="none" stroke-linecap="round" stroke-linejoin="round" stroke="#ff3ea5" stroke-width="9"/><path d="M18 28 C26 30 32 34 38 40 M20 90 C50 84 72 62 84 22" fill="none" stroke-linecap="round" stroke-linejoin="round" stroke="#ffe0f0" stroke-width="3.78" opacity="0.9"/></g></svg>
