<svg xmlns="http://www.w3.org/2000/svg" viewBox="0 0 912 150" width="912" height="150" role="img"><title>RAMen icons</title><rect width="912" height="150" fill="#101315"/><g transform="translate(48 24) scale(3)"><path d="M4.5 4.5 L11.5 11.5 M11.5 4.5 L4.5 11.5" fill="none" stroke="#cacccc" stroke-width="1.5" stroke-linecap="round" stroke-linejoin="round"/></g><text x="72" y="120" text-anchor="middle" font-family="JetBrains Mono, JetBrainsMono Nerd Font, DejaVu Sans Mono, monospace" font-size="12" fill="#8c90a0">close</text><g transform="translate(144 24) scale(3)"><path d="M5.4 1.75 H10.6 L14.25 5.4 V10.6 L10.6 14.25 H5.4 L1.75 10.6 V5.4 Z M6 6 L10 10 M10 6 L6 10" fill="none" stroke="#cacccc" stroke-width="1.5" stroke-linecap="round" stroke-linejoin="round"/></g><text x="168" y="120" text-anchor="middle" font-family="JetBrains Mono, JetBrainsMono Nerd Font, DejaVu Sans Mono, monospace" font-size="12" fill="#8c90a0">force</text><g transform="translate(240 24) scale(3)"><path d="M5.25 7.25 V5.25 C5.25 3.6 6.5 2.25 8 2.25 C9.5 2.25 10.75 3.6 10.75 5.25 V7.25 M4.25 7.25 H11.75 Q12.75 7.25 12.75 8.25 V12.75 Q12.75 13.75 11.75 13.75 H4.25 Q3.25 13.75 3.25 12.75 V8.25 Q3.25 7.25 4.25 7.25 Z M8 9.75 V11.25" fill="none" stroke="#cacccc" stroke-width="1.5" stroke-linecap="round" stroke-linejoin="round"/></g><text x="264" y="120" text-anchor="middle" font-family="JetBrains Mono, JetBrainsMono Nerd Font, DejaVu Sans Mono, monospace" font-size="12" fill="#8c90a0">lock</text><g transform="translate(336 24) scale(3)"><path d="M1.75 8 A6.25 6.25 0 1 0 14.25 8 A6.25 6.25 0 1 0 1.75 8 Z M8 7.25 V11.5 M8 4.75 V4.8" fill="none" stroke="#cacccc" stroke-width="1.5" stroke-linecap="round" stroke-linejoin="round"/></g><text x="360" y="120" text-anchor="middle" font-family="JetBrains Mono, JetBrainsMono Nerd Font, DejaVu Sans Mono, monospace" font-size="12" fill="#8c90a0">info</text><g transform="translate(432 24) scale(3)"><path d="M10 3.5 L5.5 8 L10 12.5" fill="none" stroke="#cacccc" stroke-width="1.5" stroke-linecap="round" stroke-linejoin="round"/></g><text x="456" y="120" text-anchor="middle" font-family="JetBrains Mono, JetBrainsMono Nerd Font, DejaVu Sans Mono, monospace" font-size="12" fill="#8c90a0">back</text><g transform="translate(528 24) scale(3)"><path d="M6 3.5 L10.5 8 L6 12.5" fill="none" stroke="#cacccc" stroke-width="1.5" stroke-linecap="round" stroke-linejoin="round"/></g><text x="552" y="120" text-anchor="middle" font-family="JetBrains Mono, JetBrainsMono Nerd Font, DejaVu Sans Mono, monospace" font-size="12" fill="#8c90a0">next</text><g transform="translate(624 24) scale(3)"><path d="M2.5 7 A4.5 4.5 0 1 0 11.5 7 A4.5 4.5 0 1 0 2.5 7 Z M10.25 10.25 L13.75 13.75" fill="none" stroke="#cacccc" stroke-width="1.5" stroke-linecap="round" stroke-linejoin="round"/></g><text x="648" y="120" text-anchor="middle" font-family="JetBrains Mono, JetBrainsMono Nerd Font, DejaVu Sans Mono, monospace" font-size="12" fill="#8c90a0">search</text><g transform="translate(720 24) scale(3)"><path d="M3.5 14.5 C1.5 11.5 5.5 9.5 3.5 6 M8 14.5 C6 11 10 9 8 4.5 M12.5 14.5 C10.5 11.5 14.5 9.5 12.5 6" fill="none" stroke="#cacccc" stroke-width="1.5" stroke-linecap="round" stroke-linejoin="round"/></g><text x="744" y="120" text-anchor="middle" font-family="JetBrains Mono, JetBrainsMono Nerd Font, DejaVu Sans Mono, monospace" font-size="12" fill="#8c90a0">steam</text><g transform="translate(813 30) scale(3)"><clipPath id="sheetLevel"><rect x="0" y="6.12" width="18" height="20"/></clipPath><path d="M1.5 4.5 C1.5 11.6 3.2 13.5 9 13.5 C14.8 13.5 16.5 11.6 16.5 4.5 Z" fill="#e0af68" clip-path="url(#sheetLevel)"/><path d="M0.5 4.5 H17.5 M1.5 4.5 C1.5 11.6 3.2 13.5 9 13.5 C14.8 13.5 16.5 11.6 16.5 4.5 M6 15.5 H12 M10 3.7 L14.4 0.4 M12.4 4 L16.8 0.7" fill="none" stroke="#cacccc" stroke-width="1" stroke-linecap="round" stroke-linejoin="round"/><path d="M3.5 3.4 C2.8 2.5 4.2 1.6 3.5 0.4" fill="none" stroke="#e0af68" stroke-width="1" stroke-linecap="round"/></g><text x="840" y="120" text-anchor="middle" font-family="JetBrains Mono, JetBrainsMono Nerd Font, DejaVu Sans Mono, monospace" font-size="12" fill="#8c90a0">bowl gauge</text></svg>
